<svg width="98" height="21" viewBox="0 0 98 21" fill="none" xmlns="http://www.w3.org/2000/svg">
<rect width="82" height="21" rx="10.5" fill="#3399AA"/>
<path d="M27.848 11.186H30.532V12H26.847V4.333H27.848V11.186ZM34.851 12.077C34.1397 12.077 33.4907 11.912 32.904 11.582C32.3174 11.2447 31.8517 10.779 31.507 10.185C31.1697 9.58367 31.001 8.909 31.001 8.161C31.001 7.413 31.1697 6.742 31.507 6.148C31.8517 5.54667 32.3174 5.081 32.904 4.751C33.4907 4.41367 34.1397 4.245 34.851 4.245C35.5697 4.245 36.2224 4.41367 36.809 4.751C37.3957 5.081 37.8577 5.543 38.195 6.137C38.5324 6.731 38.701 7.40567 38.701 8.161C38.701 8.91633 38.5324 9.591 38.195 10.185C37.8577 10.779 37.3957 11.2447 36.809 11.582C36.2224 11.912 35.5697 12.077 34.851 12.077ZM34.851 11.208C35.3864 11.208 35.8667 11.0833 36.292 10.834C36.7247 10.5847 37.062 10.229 37.304 9.767C37.5534 9.305 37.678 8.76967 37.678 8.161C37.678 7.545 37.5534 7.00967 37.304 6.555C37.062 6.093 36.7284 5.73733 36.303 5.488C35.8777 5.23867 35.3937 5.114 34.851 5.114C34.3084 5.114 33.8244 5.23867 33.399 5.488C32.9737 5.73733 32.6364 6.093 32.387 6.555C32.145 7.00967 32.024 7.545 32.024 8.161C32.024 8.76967 32.145 9.305 32.387 9.767C32.6364 10.229 32.9737 10.5847 33.399 10.834C33.8317 11.0833 34.3157 11.208 34.851 11.208ZM45.6105 6.555C45.3978 6.10767 45.0898 5.763 44.6865 5.521C44.2832 5.27167 43.8138 5.147 43.2785 5.147C42.7432 5.147 42.2592 5.27167 41.8265 5.521C41.4012 5.763 41.0638 6.115 40.8145 6.577C40.5725 7.03167 40.4515 7.55967 40.4515 8.161C40.4515 8.76233 40.5725 9.29033 40.8145 9.745C41.0638 10.1997 41.4012 10.5517 41.8265 10.801C42.2592 11.043 42.7432 11.164 43.2785 11.164C44.0265 11.164 44.6425 10.9403 45.1265 10.493C45.6105 10.0457 45.8928 9.44067 45.9735 8.678H42.9155V7.864H47.0405V8.634C46.9818 9.26467 46.7838 9.844 46.4465 10.372C46.1092 10.8927 45.6655 11.307 45.1155 11.615C44.5655 11.9157 43.9532 12.066 43.2785 12.066C42.5672 12.066 41.9182 11.901 41.3315 11.571C40.7448 11.2337 40.2792 10.768 39.9345 10.174C39.5972 9.58 39.4285 8.909 39.4285 8.161C39.4285 7.413 39.5972 6.742 39.9345 6.148C40.2792 5.54667 40.7448 5.081 41.3315 4.751C41.9182 4.41367 42.5672 4.245 43.2785 4.245C44.0925 4.245 44.8112 4.44667 45.4345 4.85C46.0652 5.25333 46.5235 5.82167 46.8095 6.555H45.6105ZM51.8576 4.333V12H50.8566V4.333H51.8576ZM59.3717 12H58.3707L54.3447 5.895V12H53.3437V4.322H54.3447L58.3707 10.416V4.322H59.3717V12Z" fill="#D93D3D"/>
</svg>
